<?xml version="1.0" encoding="UTF-8"?>
<!DOCTYPE svg PUBLIC "-//W3C//DTD SVG 1.1//EN" "http://www.w3.org/Graphics/SVG/1.1/DTD/svg11.dtd">
<!-- Creator: CorelDRAW 2020 (64-Bit) -->
<svg xmlns="http://www.w3.org/2000/svg" xml:space="preserve" width="256px" height="256px" version="1.1" shape-rendering="geometricPrecision" text-rendering="geometricPrecision" image-rendering="optimizeQuality" fill-rule="evenodd" clip-rule="evenodd"
viewBox="0 0 256 256"
 xmlns:xlink="http://www.w3.org/1999/xlink"
 xmlns:xodm="http://www.corel.com/coreldraw/odm/2003">
 <g id="Layer_x0020_1">
  <metadata id="CorelCorpID_0Corel-Layer"/>
  <path fill="black" d="M205.9 66.88c6.17,-1.3 7.63,-1.15 9.37,-7.16 0.95,-3.29 1.1,-14.86 0.19,-18.13 -2.65,-9.52 -21.67,-5.12 -32.58,-6.41 -13.09,-2.08 -34.38,-10.97 -56.49,-2.29 -56.68,24.48 -12.48,75.85 -16.37,94.89 -133.11,-35.91 -114.96,49.39 -99.03,68.73 33.63,40.84 135.69,39.97 164.84,0.23 6.26,-8.55 5.58,-14.24 10.25,-14.92 4.67,-0.69 4.44,3.07 3.53,4.89 -4.07,8.14 -15.34,13.27 -20.05,18.8 -7.95,9.32 7.44,12.18 16.65,12.27 21.28,0.21 53.13,-11.45 63.73,-29.65 10.95,-18.83 6.28,-32.35 -7.69,-40.86 -18.36,-10.79 -32.4,-9.15 -53.86,-12.36 -4.07,-11.86 -15.33,-23.61 -32.21,-46.73 22.84,8.81 50.08,8.06 49.72,-21.3z"/>
  <path fill="#98BB39" d="M194.95 187.15c-3.9,10.92 -30.63,18.02 -23.63,24.51 18.81,8.96 63.34,-4.47 75.93,-28.46 19.09,-36.36 -30.71,-40.31 -58.27,-43 1.09,8.68 0.85,14.8 -0.08,20.69 5.54,2.21 7.09,2.83 9.03,7.38 2.48,5.81 2.16,11.03 -2.99,18.9l0.01 -0.02zm-61.87 12.88c0.31,-0.14 0.61,-0.29 0.91,-0.44l0 0c18.98,-9.47 27.03,-36.99 18.91,-63.67 -4.38,-14.37 -30.79,-61.19 -21.29,-71.72 -0.79,-1.31 10.51,16.66 34.56,22.84 21.34,5.48 34.96,3.33 33.47,-19.91 -10.82,-1.77 -14.24,-9.22 -19.19,-13.45 -11.13,11.24 -32.63,18.66 -35.48,-2.35 -8.82,1.82 -17.64,3.64 -26.46,5.46 -6.06,2.09 -2.38,17.78 -7.31,8.8 -8.3,-17.87 15.5,-14.64 27.49,-23.64 9.83,-4.53 7.28,-5.41 16.54,-5.63l14.02 -0.33c-24.18,-10.53 -59.79,1.9 -65.65,19.88 -4.83,14.82 -1.79,32.49 4.65,45.29 24.6,48.96 -33.61,78.51 -62.34,48.48 12.15,4.75 21.56,12.78 39.48,8.51 12.54,-2.98 22.85,-14.88 24.87,-26.81 -25.6,-1.43 -100.15,-28.45 -105.38,30.83 2.47,8.06 14.75,28.83 54.06,38.68 24.64,6.18 52.99,8.91 74.14,-0.82z"/>
  <path fill="#729F4C" d="M246.87 183.89c0.13,-0.23 0.26,-0.45 0.38,-0.69 14.11,-26.87 -9.41,-36.04 -33.78,-40.08 -19.69,0.37 -19.07,20.32 -19.07,20.32 1.53,1.04 2.47,2.35 3.53,4.83 1.39,3.27 1.9,6.35 1.17,9.81 5.14,-10.71 33.62,-20.79 47.77,5.81zm-93.97 -47.97c-28.09,9.43 -36.9,-1.73 -39.62,-3.73l-0.01 0c-1.65,7.42 -5.51,13.71 -10.7,18.55l0 0.01c-1.43,8.86 4.55,38.77 45.77,35.4 8.07,-13.01 10.17,-31.82 4.56,-50.23zm-85.8 66.82l0 0c-13.77,-25.85 8.07,-41.01 8.07,-41.01l0 -0.01c-10.42,0.22 -21.04,-3.49 -29.26,-12.08 0,0 -29.17,-15.48 -41.03,12.49l0 0.04c2.47,8.06 14.75,28.83 54.06,38.68 2.68,0.67 5.41,1.31 8.16,1.89zm11.84 -43.53c2.03,-0.17 4.17,-0.52 6.45,-1.06 12.54,-2.98 22.85,-14.88 24.87,-26.81 -10.13,-0.57 -27.93,-5.14 -46.06,-6.79 23.14,10.98 14.74,34.66 14.74,34.66zm52.11 -78.14l-0.01 0c-20.79,3.85 -29.7,-6.64 -29.75,-6.7 0.43,9.57 3.07,19.07 6.96,26.79 0.33,0.67 0.65,1.34 0.96,2l0 0.01c0,0 8.85,10.47 31.25,3.61 -3.8,-8.79 -7.45,-17.97 -9.41,-25.71z"/>
  <path fill="none" d="M152.9 135.92c-28.09,9.43 -36.91,-1.73 -39.63,-3.73l0 0m-10.7 18.55l-0.01 0.01c-1.43,8.86 4.56,38.77 45.77,35.4l0.8 -0.4m5.28 -50.26l-1.51 0.43"/>
  <path fill="none" d="M152.9 135.92c-28.09,9.43 -36.91,-1.73 -39.63,-3.73l0 0m-10.7 18.55l-0.01 0.01c-1.43,8.86 4.56,38.77 45.77,35.4l0.8 -0.4m5.28 -50.26l-1.51 0.43"/>
  <path fill="#EBE999" d="M185.35 177.08c5.6,0.08 11.44,2.85 9.59,10.09 5.14,-7.87 5.47,-13.09 2.99,-18.9 -1.94,-4.55 -3.5,-5.17 -9.04,-7.39 -1.09,8.93 -3.33,14.69 -3.54,16.2z"/>
  <path fill="#EBE999" d="M4.87 162.15c-5.57,37.77 48.83,60.7 88.56,60.14 27.05,-0.38 66.55,-8.85 81.2,-31.61 9.27,-14.4 14.37,-41.87 8.77,-56.6 -5.61,-14.74 -18.85,-29.57 -28.99,-43.11 -9.48,-12.66 -19.24,-21.07 -22.8,-26.77 -9.51,10.53 16.91,57.35 21.29,71.72 8.25,27.1 -0.19,55.08 -19.82,64.11 -21.15,9.73 -49.5,7 -74.14,0.82 -39.34,-9.86 -51.61,-30.65 -54.07,-38.7z"/>
 </g>
</svg>
