<?xml version="1.0" encoding="UTF-8"?>
<!DOCTYPE svg PUBLIC "-//W3C//DTD SVG 1.1//EN" "http://www.w3.org/Graphics/SVG/1.1/DTD/svg11.dtd">
<!-- Creator: CorelDRAW 2020 (64-Bit) -->
<svg xmlns="http://www.w3.org/2000/svg" xml:space="preserve" width="2240px" height="320px" version="1.1" shape-rendering="geometricPrecision" text-rendering="geometricPrecision" image-rendering="optimizeQuality" fill-rule="evenodd" clip-rule="evenodd"
viewBox="0 0 2240 320"
 xmlns:xlink="http://www.w3.org/1999/xlink"
 xmlns:xodm="http://www.corel.com/coreldraw/odm/2003">
 <g id="Layer_x0020_1">
  <metadata id="CorelCorpID_0Corel-Layer"/>
  <g id="_1139051776">
   <path fill="#090909" d="M157.88 41.83c-21.69,-3.22 -30.25,-18.39 -61.11,-18.76 -46.57,-0.57 -83.6,15.27 -93.05,66.44 -12.48,67.58 7.16,139.64 48.24,186.12 15.26,17.26 49.2,50.77 76.63,39.56 10.88,-4.44 21.32,-16.09 23.54,-17.42 20.93,-12.52 24.41,62.06 101.29,-8.69 27.23,-25.06 48.56,-64.46 58.84,-101.99 10.37,-37.87 13.43,-113.89 -10.81,-139.13 -44.97,-46.83 -106.36,-10.72 -123.42,-10.62l-1.78 -31.74c-8.07,-2.79 -17.42,-5.96 -26.86,-5.57 0.27,9.27 7.27,26.4 8.49,41.8z"/>
   <path fill="#E4342D" d="M239.57 49.33l-1.83 0c-13.63,0.05 -46.56,11.13 -59.92,15.57l-0.88 14.49 25.01 -3.4c4.34,37.47 -93.74,21.73 -77.62,2.07 0.38,-0.32 1.03,-1.19 1.27,-0.77l5.96 -1.65c8.64,-0.25 9.71,5.34 25.46,4.13l0.58 -9.49 -37.5 -16.59c-22.07,-10.77 -65.74,-8.07 -81.52,13.3 -6.1,8.25 -13.1,28.68 -14.21,42.98 -8.4,108.19 67.74,185.37 93.98,181.41 11.6,-1.75 16.51,-18.97 35.18,-20.48 18.09,-1.47 24.54,9.85 35.34,18.39 20.78,16.45 48.9,-20.17 61.95,-35.1 40.34,-46.22 84.53,-205.23 -11.25,-204.86z"/>
   <path fill="#871918" d="M203.5 245c-14.22,-13.39 -17.45,-23.43 -47.7,-20.61 -23.69,2.21 -31.24,12.99 -43.85,27.72 -20.2,-1.54 -15.71,-15.47 -30.86,-14.41 -1.88,13.52 20.03,37.62 30.56,38.61 22.69,2.13 24,-28.23 45.54,-26.94 22.94,1.39 28.18,36.09 59.83,24.74 16.19,-5.81 34.89,-31.52 43.72,-47.93 3.98,-7.41 8.16,-14.98 11.25,-24.14 3.59,-10.68 8.03,-15.78 8.26,-27.93 0.36,-18.42 -15.65,-31.83 -33.11,2.08 -2.25,4.37 -4.03,8.38 -5.98,12.74 -6.64,14.77 -17.64,35.55 -27.19,45.84l-10.47 10.23z"/>
   <path fill="#FCF9E8" d="M70.84 58.19c-13.82,4.22 -25.19,20 -32.24,31.49 -13.21,21.57 7.14,42.35 21.4,27.88 5.82,-5.91 6.84,-13.07 11.66,-20.27 5.05,-7.54 10.54,-8.94 18.53,-13.03 16.29,-8.33 12.66,-35.85 -19.35,-26.07z"/>
  </g>
  <g id="_1001710864">
   <path fill="#090909" d="M1440.19 24.75c-14.87,4.34 -14.12,1.86 -23.57,10.54 -2.78,2.54 -5.82,5.4 -8.43,8.13 -3.24,3.39 -5.36,4.6 -9.17,8.84 -24.7,27.43 -15.7,69.35 -44.37,88.62 -30.12,20.25 -79.65,128.85 17.53,170.63 15.51,6.66 42.22,9.72 60.96,8.03 43.26,-3.88 90.35,-4.72 113.47,-27.23 30.05,-29.26 22.18,-111.6 -16.13,-145.41 -12.68,-11.18 -30.59,-18.91 -31.38,-35.92 -1.1,-23.93 -0.5,-34.02 -12.12,-53.46 -16.12,-26.98 -26.21,-25.07 -37.31,-32.17 -0.1,-18.63 2.41,-18.78 2.25,-25.35 -24.5,3.3 -9.72,10.63 -11.73,24.75z"/>
   <path fill="#B5BB26" d="M1450.44 45.66l1.45 13.08c0.26,0.16 1.48,0.91 1.8,1.13 3.01,2 1.84,0.19 3.56,2.81 -4.67,3.9 -21.33,3.96 -26.53,-1.31 6.05,-8.42 10.8,3.19 10.64,-18.34 -10.45,0.8 -27.44,18.49 -32.07,26.29 -13.77,23.22 -10.64,56.07 -34.63,79.04 -10.82,10.36 -17.43,9.7 -27.38,31.81 -13.15,29.21 -20.75,62.82 -0.82,90.15 18.13,24.87 47.85,34.43 89.07,31.37 12.86,-0.96 56.43,-4.09 67.81,-7.14 10.8,-2.89 20.78,-6.9 28.56,-14.02 22.46,-20.56 18.57,-94.44 -19.1,-124.43 -11.17,-8.89 -23.43,-16.64 -29.56,-28.5 -7.31,-14.13 -0.47,-32.43 -7.13,-48.64 -4.74,-11.53 -15.92,-29.74 -25.67,-33.3z"/>
   <path fill="#FCF9E8" d="M1420.62 87.33c-15.23,14.73 -11.01,36.53 -27.52,57.74 -6.78,8.71 -24.9,30.96 -23.93,42.05 0.92,10.67 8.11,1.61 11.17,-1.1 17.08,-15.18 19.03,-13.16 36.56,-28.9 2.66,-2.4 3.69,-2.69 5.92,-5.23 1.04,-1.18 3.33,-4.25 4.77,-6.09 10.28,-13.11 24.34,-59.72 -6.97,-58.47z"/>
   <path fill="#9B9C1A" d="M1371.62 257.88c2.08,9.22 27.49,41.72 95.41,32.7 38.3,-5.08 68.25,-33.6 71.56,-51.29 3.31,-17.69 0.31,-44.03 -21.58,-8.21 -21.89,35.83 -81.47,34.2 -112.14,27.42 -30.67,-6.79 -35.34,-9.83 -33.25,-0.62z"/>
  </g>
  <g id="_1001711344">
   <path fill="#090909" d="M714.25 68.34c-22.44,19.32 -37.11,42.65 -44.66,69.63 -8.94,31.96 0.31,50.69 -6.84,75.56 -1.93,6.71 -3.28,18.15 -1.14,25.4 3.08,10.49 10.87,17.28 19.28,19.68 32.66,9.31 16.58,-0.74 48.69,17.5 15.46,8.78 32.47,10.92 49.25,12.99 76,9.39 167.73,-66.78 151.7,-158.3 -4.07,-23.23 30.73,-52.43 -13.16,-67.59 -9.06,-3.13 -15.81,-2.93 -24.94,-4.22 -14.23,-2.01 -27.38,-23.08 -72.98,-26.26 -3.98,-0.28 -7.95,0.2 -12.17,0.02 -31.73,-1.36 -69.32,15.18 -93.03,35.59z"/>
   <path fill="#F4DD1C" d="M918.63 85.81c-7.18,-4.56 -33.84,-6.31 -41.38,-10.37 -3.55,-1.92 -5.52,-4.12 -9.07,-6.58 -32.67,-22.74 -88.86,-17.12 -120.49,1.65 -49,29.06 -63.17,65.37 -60.4,120.61 0.62,12.43 -8.87,37 -5.3,43.7 3.09,5.78 14.25,6.74 19.61,7.57 7.67,1.18 13.8,1.52 21.32,6.05 43.49,26.23 87.61,27.9 130.09,1.1 39.14,-24.69 56.57,-59.54 58.6,-98.68 1.17,-22.55 -6.94,-14.76 1.32,-44.27 1.91,-6.81 5.41,-13.47 5.7,-20.78z"/>
   <path fill="#FCF9E8" d="M709.73 173.87c17.4,-13.46 11.58,-42.11 49.55,-70.25 13.9,-10.3 58.59,-26.43 31.1,-30.59 -14.73,-2.22 -36.23,2.62 -51.28,13.53 -21.9,15.87 -42.71,40.24 -42.9,68.35 -0.1,14.55 3.23,14.82 13.53,18.96z"/>
   <path fill="#E8B212" d="M829.95 226.79c6.09,-21.13 34.07,-25.36 46.23,-71.05 4.45,-16.73 3.38,-64.71 16.78,-39.99 7.19,13.24 10.34,35.33 5.75,53.36 -6.69,26.23 -21.46,54.32 -46.85,64.08 -13.14,5.05 -14.54,1.98 -21.91,-6.4z"/>
  </g>
  <g id="_1151420784">
   <path fill="#090909" d="M617.21 285.45c10.81,-12.48 17.77,-28.17 17.79,-48.65 -2.09,-34.45 -27.96,-56.95 -60.98,-64.7 -26.76,-6.27 -23.06,-0.73 -37.04,3.28 -34.91,-39.2 -83.52,-92.9 -73.81,-145.27 2.1,-11.34 8.53,-13.41 11.69,-21.56 -18.21,-5.55 -21.22,-5.77 -41.38,-2.02 2.97,5.82 5.75,7.72 11.32,11.76 -4.64,4.69 -10.28,11.15 -15.36,16.02 -45.93,37.16 -71.24,91.13 -56.8,150.23 -31.45,0.92 -42.78,20.4 -46.74,46.32 -10.86,71.21 79.12,108.07 133.44,64.2 11.63,-9.39 12.14,-13.78 21.19,-26.23 22.96,46.45 101.16,57.67 136.68,16.62zm-230.02 -105.42c35.67,-22.11 75.29,14.54 90.37,31.15 14.16,-20.43 20.11,-26.71 39.16,-34.29 -38.64,-36.99 -66.89,-82.96 -70.72,-131.77 -45.95,13.82 -69.71,96.3 -58.81,134.91z"/>
   <path fill="#F61313" d="M383.67 221.93c-4.44,-5.14 -5.39,-7.06 -5.91,-14.86 -30.11,-11.8 -42.4,25.89 -31.54,55.58 10.86,29.69 63.64,46.19 99.28,21.3 32.47,-22.66 26.88,-72.49 -13.84,-87.61 -22.34,-13.65 -32.07,-0.3 -47.99,25.59z"/>
   <path fill="#EA1924" d="M610.15 219.75c-8.05,-16.98 -27.56,-28.8 -47.97,-31.49 -13.16,-1.74 -12.79,10.74 -23.2,16.36 -5.32,-6.86 -1.32,-12.07 -17.4,-9.69 -7.75,1.15 -11.89,5.21 -15.33,10.54 -22.53,34.89 -3.21,87.61 51.63,87.12 40.78,1.08 67.38,-40.96 52.27,-72.84z"/>
   <path fill="#650808" d="M442.17 225.36c-21.03,7.2 1.4,30.15 -25.13,40.55 -7.74,3.03 -23.47,0.91 -27.59,7.08 -6.72,10.05 7.39,16.15 17.24,16.4 58.43,1.44 61.53,-72.95 35.48,-64.03z"/>
   <path fill="#FCF9E8" d="M520.95 199.87c-17.15,6.32 -24.28,39.18 -6.29,37.43 9.62,-0.93 9.17,-12.91 12.64,-20.37 2.88,-6.18 10.31,-23.18 -6.35,-17.06z"/>
   <path fill="#FCF9E8" d="M362.64 211.74c-15.68,8.82 -16.3,42.28 1.09,37.82 9.29,-2.38 6.51,-14.11 8.48,-21.99 1.64,-6.52 5.64,-24.4 -9.57,-15.83z"/>
   <path fill="#650808" d="M591.08 219.59c-21.02,7.2 1.4,30.15 -25.12,40.55 -7.74,3.03 -23.48,0.91 -27.6,7.08 -6.71,10.06 7.39,16.16 17.25,16.4 58.43,1.44 61.52,-72.95 35.47,-64.03z"/>
  </g>
  <g id="_1152062048">
   <path fill="#090909" d="M1134.61 53.9c-32.08,-38.5 -79.49,-26.83 -85.3,-16.49 8.2,11.59 8.96,1.35 21.72,9.92 5.39,3.62 12.98,13.15 15.18,16.66l-4.2 0.62c-4.85,0.01 -7.69,-1.67 -16.13,-0.16 -17.51,3.14 -35.62,14.27 -47.59,28.4 -40.24,47.49 -27.91,103.3 -2.24,152.27 10.11,19.27 22.04,47.58 44.02,60.88 15.17,9.18 28.26,6.02 40.87,3.34 11.77,-2.5 31.12,-10.95 43.41,-15.68 17.12,-6.57 60.03,-29.2 72.81,-41.69 25.38,-24.78 41.21,-65.7 31.53,-100.1 -3.65,-13 -14.06,-18.69 -24.94,-28.97 13.34,1.76 17.1,12.24 25.33,8.52 7.67,-6.06 -15.68,-29.25 -20.54,-33.51 -11.85,-10.35 -32.32,-15.31 -47.11,-13.05 7.96,-31.47 9.98,-65.97 -15.31,-79.61 -6.5,7.64 -30.31,47.73 -31.51,48.65z"/>
   <path fill="#C91818" d="M1227.24 202.12c4.94,-15.57 9.91,-33.37 2.97,-46.1 -4.99,-9.15 -22.31,-21.93 -37.92,-24.64 -23.08,-4.03 -40.97,19.8 -77.36,-23.09 -20.61,-24.31 -40.75,-37.4 -73.05,-13.44 -23.68,17.57 -34.28,48.45 -31.53,80.24 2.05,23.74 16.66,54.39 28.19,72.37 21.74,33.94 25.67,52.14 59.18,43.61 26.02,-6.63 50.26,-18.15 71.75,-29.62 23.12,-12.33 47.24,-26.14 57.77,-59.33z"/>
   <path fill="#FCF9E8" d="M1088.13 125.38c12.65,6.15 28.36,25.86 36.3,25.3 7.95,-0.56 7.85,-1.19 10.13,-4.79 -1.13,-4.33 -3.15,-5.35 -7.99,-11.38 -2.9,-3.61 -5.86,-6.51 -8.82,-10.51 -4.51,-6.1 -11.47,-16.66 -18.88,-21.31 -21.62,-13.59 -43.88,-9.32 -57.51,1.39 -18.57,14.61 -26,60.99 -5.93,40.29 14.88,-15.34 40.05,-25.15 52.7,-18.99z"/>
   <path fill="#95090B" d="M1042.2 237.84c7.07,26.1 37.49,48.31 64.92,40.88 27.76,-7.52 87.74,-42.36 102.94,-61.5 38.7,-48.74 -68.32,21.68 -68.41,21.73 -34.91,20.1 -62.22,21.6 -95.09,-12.08 -8.38,-8.59 -6.83,1.84 -4.36,10.97z"/>
   <path fill="#0D944B" d="M1132.75 98.57c-10.09,-2.78 -13.31,-2.59 -21.45,-15.41 -8.14,-12.82 -15.95,-32.73 -32.08,-43.25 36.31,-2.67 53.55,21.08 62.63,52.28 -8.07,-13.84 -16.12,-28.12 -31.05,-36.75 8.94,13.79 16.38,27.43 21.95,43.13z"/>
   <path fill="#0D944B" d="M1148.8 84.91c-1.54,-4.68 -3.14,-12.68 -4.68,-17.36 1.67,-5.13 20.69,-53.83 27.85,-38.39 3.69,7.96 5.8,36.15 -3.95,58.98 -3.01,2.62 -5.9,3.83 -9.57,4.36 2.6,-10.39 4.86,-20.77 3.07,-32 -3.08,9.72 -7.46,17.92 -12.72,24.41z"/>
   <path fill="#0D944B" d="M1152.5 119.08c8.64,4.3 10.74,6.42 24.25,2.62 13.51,-3.79 31.16,-12.67 48.75,-9.96 -23.33,-24.21 -49.83,-18.51 -75.33,-2.66 14.1,-4.54 28.44,-9.39 44.03,-6.13 -14.66,3.97 -28.19,8.77 -41.7,16.13z"/>
  </g>
  <g id="_1152051632">
   <path fill="#090909" d="M2061.05 0.89c-40.33,4.48 -57.27,17.48 -83.96,36.92 -21.12,15.38 -37.69,48 -47.64,71.88 -8.48,20.33 -11.16,47.75 -8.41,72.08 8.79,77.83 89.76,148.38 182.57,137.02 106.66,-13.05 172.68,-142.24 115.05,-238.17l-16.37 -23.49 -31.18 -28.62c-3.28,-2.27 -8.51,-4.63 -12.82,-7.15 -10.4,-6.12 -15.2,-8.37 -27.7,-12.23 -22.23,-6.86 -44.1,-11.06 -69.54,-8.24z"/>
   <path fill="#EA842A" d="M1959.86 220.62c33.14,74.19 142.75,107.39 218.48,31.87 21.8,-21.75 30.36,-44.88 36.57,-75.71 12.13,-60.23 -44.79,-124.88 -80.89,-141.53 -36.1,-16.64 -82.82,-12.08 -115.36,3.85 -70,34.26 -89.53,112.74 -58.8,181.52z"/>
   <path fill="#BC6219" d="M2187.49 137.46c-6.14,2.89 -11.08,17.77 -13.23,25.63 -6.79,24.8 -10.46,34.6 -25.79,54.29 -20.49,20.32 -61.05,38.47 -91.95,28.29 -9.17,-3.03 -19.22,-16.62 -26.48,-6.81 -7.31,9.9 13.39,56.01 73.95,40.79 24.71,-6.21 31.03,-8.16 51.19,-21.2 11.87,-7.67 25.8,-25.81 32.62,-38.28 15.54,-28.45 13.66,-75.98 -0.31,-82.71z"/>
   <path fill="#FCF9E8" d="M1973.15 196.66c4.8,-2.42 4.31,-3.4 6.39,-10.1 1.47,-4.76 2.17,-8.25 3.2,-13.06 1.47,-6.88 4.23,-19.89 6.64,-25.76 13.3,-42.9 27.62,-58.52 66.51,-74.92 15.82,-6.66 26.71,-6.8 33.01,-8.68l3.94 -1.83c8.09,-14.42 -41.61,-16.55 -53.25,-13.24 -58.9,16.76 -97.27,131.54 -66.44,147.59z"/>
   <ellipse fill="#090909" cx="2076.54" cy="44.73" rx="18.02" ry="8.4"/>
  </g>
  <g id="_1152050144">
   <path fill="#090909" d="M1865.04 3.11c-107.31,23.58 -16.54,53.17 -36.26,85.1 -45.96,60.77 -118.22,141.81 -202.06,161.2 -24.33,5.62 -31.03,5.57 -16.91,29.25 13.17,22.1 5.22,28.87 27.53,33.61 83.21,17.67 207.84,-9.87 254.46,-76.14 42.55,-60.48 24.09,-122.6 2.89,-184.73 -5.74,-16.8 -3.16,-54.11 -29.65,-48.29z"/>
   <path fill="#F7CC27" d="M1837.84 32.77c1.4,13.01 14.03,24.54 16.51,40.63 3.64,23.63 -25.5,55.35 -42.93,74.26 -54.61,59.25 -99.38,91.01 -179.52,123.17 2.71,5.9 7.21,13.14 9.65,20.95 74.67,20.42 203.31,-13.11 236.9,-77.88 28.94,-55.83 9.32,-108.82 -7.63,-161.95 -3.84,-12.07 -1.63,-20.65 -7.11,-27.24 -11.85,1.26 -17.94,4.69 -25.87,8.06z"/>
   <path fill="#FCF9E8" d="M1851.14 116.54c-9.24,5.94 -14.13,14.22 -21.62,21.81l-29.68 36.52c-27.76,30.6 -77.14,70.86 -115.93,89.39 -4.72,2.26 -13.6,5.13 -16.09,6.75 -8.37,5.43 -1.71,9.29 8.18,6.88 15.29,-3.73 44.37,-23.27 59.26,-31.49 36,-19.87 64.43,-39.86 90.01,-68.44 3.22,-3.59 7.11,-7.69 10.92,-12.28 4.96,-5.96 23.69,-34.19 25.66,-40.44 2.62,-8.32 -2.88,-13.72 -10.71,-8.7z"/>
   <path fill="#DB9E1F" d="M1700.3 293.51c51.97,-21.09 164.03,-102.71 184.33,-163.91 1.92,51.7 -3.07,84 -44.84,115.62 -41.77,31.61 -70.05,40.64 -139.49,48.29z"/>
   <path fill="#090909" d="M1723.31 272.27c59.76,-25.16 117.1,-75.38 146.45,-125.94 -7.01,54.06 -74.9,119.89 -146.45,125.94z"/>
  </g>
 </g>
</svg>
