<?xml version="1.0" encoding="UTF-8"?>
<!DOCTYPE svg PUBLIC "-//W3C//DTD SVG 1.1//EN" "http://www.w3.org/Graphics/SVG/1.1/DTD/svg11.dtd">
<!-- Creator: CorelDRAW 2020 (64-Bit) -->
<svg xmlns="http://www.w3.org/2000/svg" xml:space="preserve" width="200px" height="42px" version="1.1" style="shape-rendering:geometricPrecision; text-rendering:geometricPrecision; image-rendering:optimizeQuality; fill-rule:evenodd; clip-rule:evenodd"
viewBox="0 0 200 41.67"
 xmlns:xlink="http://www.w3.org/1999/xlink"
 xmlns:xodm="http://www.corel.com/coreldraw/odm/2003">
 <defs>
  <style type="text/css">
   <![CDATA[
    .fil0 {fill:url(#id0);fill-rule:nonzero}
   ]]>
  </style>
  <linearGradient id="id0" gradientUnits="userSpaceOnUse" x1="100.12" y1="41.83" x2="99.88" y2="0.17">
   <stop offset="0" style="stop-opacity:1; stop-color:#FF4A40"/>
   <stop offset="0.329412" style="stop-opacity:1; stop-color:#FB8043"/>
   <stop offset="1" style="stop-opacity:1; stop-color:#E2F746"/>
  </linearGradient>
 </defs>
 <g id="Layer_x0020_1">
  <metadata id="CorelCorpID_0Corel-Layer"/>
  <path class="fil0" d="M29.47 29.68l-1.72 0.34 1.67 0.66 -0.72 7.22 -15.77 2.71 -6.88 -4.49 1.89 -1.06 -2.67 0.56 -5.27 -3.55 4.78 -8.99 13.98 5.94 -18.76 -11.99 2.39 -8.16 3.05 -0.44 -2.72 -0.72 1.5 -5.05 15.38 -1.55 4.94 3.83 -1.39 0.5 2 0 4.27 3.38 -4.5 7.83 -12.32 -3.22 17.6 9.32 -0.73 6.93 0 0zm154.49 -0.55l14.82 -1.11 1.22 11.32 -28.47 -0.17 -0.17 -6.32 3.05 -0.39 -3.05 -0.45 -0.73 -26.91 1.12 -0.5 -1.12 -0.77 -0.05 -2.61 28.09 -1.05 -0.61 11.59 -14.82 -0.72 0.05 1.94 -1.88 0.72 1.94 0.23 0 0.88 12.38 0.39 0 9.49 -12.1 1.22 0.33 3.22 0 0zm-14.93 -6.94l-13.55 0.45 0 -4.27 2.11 -0.17 -2.11 -0.45 0 -1.38 13.55 0.77 0 2.39 -1.28 0.28 1.28 0.33 0 2.05zm-18.32 6.55l2.11 0 4.55 6.32 -11.21 6.77 -6.22 -13.59 0.39 3.89 -1.17 0.5 1.22 0.44 0.84 7.32 -13.66 -0.28 -0.28 -4.16 3.06 -0.33 -3.17 -0.67 -1.61 -23.69 1.67 -1.49 -1.72 0 -0.5 -7.22 12.65 -1.27 1.22 10.7 3.78 -7.04 1.89 -0.22 -1.61 -0.28 2.22 -4.27 9.71 7.93 -8.38 11.76 5.83 8.22 -1.61 0.66 0 0zm-37.91 -0.66l9.99 0 1.5 10.98 -17.99 0.55 -10.54 -9.43 -1.01 -20.02 1.95 -0.62 -2 -0.27 -0.06 -1.28 10.99 -7.82 17.21 1.55 -0.05 3.33 -1.11 0.33 1.05 0.67 -0.05 5.77 -14.94 0 0 10.76 1.67 1.72 -1.33 0.95 1.88 -0.28 2.84 3.11 0 0zm-31.87 -5.22l0 -3.94 -1.83 -7.82 -1.77 11.48 3.6 0.28zm10.22 1.5l1.33 -0.23 2.77 12.65 -11.76 2.67 -1.28 -7.82 -5.61 0.38 -0.88 3.83 -1.34 0.39 1.11 0.61 -0.89 3.49 -11.15 -2.21 5.66 -26.58 3.55 -0.11 -3.27 -1.17 1.72 -7.98 6.88 -1 9.44 0 4.22 19.14 -1.95 1.05 2.28 0.33 0.44 2 -1.27 0.56 0 0zm-28.92 -2.5l-2.61 0.61 2.55 0.28 -0.39 15.87 -11.27 1.16 -6.27 -14.53 0 13.75 -11.93 0.78 -0.17 -7.99 2.78 -0.44 -2.78 -0.89 -0.56 -28.8 12.38 -0.99 2.89 5.49 -2.33 0.77 2.78 0 3.38 6.22 0.83 -12.98 11.16 0.5 -0.44 21.19 0 0z"/>
 </g>
</svg>
