<?xml version="1.0" encoding="UTF-8"?>
<!DOCTYPE svg PUBLIC "-//W3C//DTD SVG 1.1//EN" "http://www.w3.org/Graphics/SVG/1.1/DTD/svg11.dtd">
<!-- Creator: CorelDRAW 2020 (64-Bit) -->
<svg xmlns="http://www.w3.org/2000/svg" xml:space="preserve" width="130px" height="69px" version="1.1" style="shape-rendering:geometricPrecision; text-rendering:geometricPrecision; image-rendering:optimizeQuality; fill-rule:evenodd; clip-rule:evenodd"
viewBox="0 0 130 69"
 xmlns:xlink="http://www.w3.org/1999/xlink"
 xmlns:xodm="http://www.corel.com/coreldraw/odm/2003"
 enable-background="new 0 0 255.882 255.882">
 <defs>
  <style type="text/css">
   <![CDATA[
    .fil2 {fill:#333333;fill-rule:nonzero}
    .fil0 {fill:#CCCCCC;fill-rule:nonzero}
    .fil1 {fill:white;fill-rule:nonzero}
   ]]>
  </style>
 </defs>
 <g id="Layer_x0020_1">
  <metadata id="CorelCorpID_0Corel-Layer"/>
  <g id="_939848288">
   <g>
    <path class="fil0" d="M73.84 1.87l-17.59 0c-3.13,0 -5.84,1.04 -7.95,3.05 -2.29,2.17 -3.3,4.66 -3.3,7.64l0 9.25c0,2.97 1.01,5.46 3.3,7.55 2.11,2.09 4.82,3.14 7.95,3.14l17.59 0c3.13,0 5.75,-1.05 7.86,-3.14 2.29,-2.09 3.3,-4.58 3.3,-7.55l0 -9.25c0,-2.98 -1.01,-5.47 -3.3,-7.64 -2.11,-2.01 -4.73,-3.05 -7.86,-3.05z"/>
   </g>
   <g>
    <path class="fil1" d="M72.15 0.5l-14.21 0c-2.45,0 -4.65,0.88 -6.34,2.57 -1.78,1.61 -2.63,3.7 -2.63,6.03l0 7.48c0,2.41 0.85,4.5 2.63,6.11 1.69,1.69 3.89,2.49 6.34,2.49l14.21 0c2.45,0 4.65,-0.8 6.34,-2.49 1.86,-1.61 2.71,-3.7 2.71,-6.11l0 -7.48c0,-2.33 -0.85,-4.42 -2.71,-6.03 -1.69,-1.69 -3.89,-2.57 -6.34,-2.57z"/>
   </g>
   <g>
    <path class="fil2" d="M62.03 20.16l6.03 0 0 -7.8 3.86 0 -6.92 -6.83 -6.75 6.83 3.78 0 0 7.8z"/>
   </g>
  </g>
  <g id="_939848240">
   <g>
    <path class="fil0" d="M28.78 38.87l-17.56 0c-3.03,0 -5.73,0.96 -7.93,3.13 -2.19,2.09 -3.29,4.59 -3.29,7.48l0 9.33c0,2.97 1.1,5.46 3.29,7.55 2.2,2.09 4.9,3.14 7.93,3.14l17.56 0c3.12,0 5.82,-1.05 7.93,-3.14 2.19,-2.09 3.29,-4.58 3.29,-7.55l0 -9.33c0,-2.9 -1.1,-5.39 -3.29,-7.48 -2.11,-2.17 -4.81,-3.13 -7.93,-3.13z"/>
   </g>
   <g>
    <path class="fil1" d="M27.34 37.5l-14.09 0c-2.53,0 -4.64,0.88 -6.41,2.57 -1.78,1.69 -2.62,3.7 -2.62,6.03l0 7.48c0,2.41 0.84,4.5 2.62,6.11 1.77,1.69 3.88,2.49 6.41,2.49l14.09 0c2.53,0 4.64,-0.8 6.41,-2.49 1.69,-1.61 2.62,-3.7 2.62,-6.11l0 -7.48c0,-2.33 -0.93,-4.34 -2.62,-6.03 -1.77,-1.69 -3.88,-2.57 -6.41,-2.57z"/>
   </g>
   <g>
    <path class="fil2" d="M27.61 52.9l0 -6.03 -7.8 0 0 -3.86 -6.83 6.91 6.83 6.76 0 -3.78 7.8 0z"/>
   </g>
  </g>
  <g id="_852891232">
   <g>
    <path class="fil0" d="M101.22 38.87l17.56 0c3.04,0 5.74,0.96 7.93,3.13 2.19,2.09 3.29,4.59 3.29,7.48l0 9.33c0,2.97 -1.1,5.46 -3.29,7.55 -2.19,2.09 -4.89,3.14 -7.93,3.14l-17.56 0c-3.12,0 -5.82,-1.05 -7.93,-3.14 -2.19,-2.09 -3.29,-4.58 -3.29,-7.55l0 -9.33c0,-2.9 1.1,-5.39 3.29,-7.48 2.11,-2.17 4.81,-3.13 7.93,-3.13z"/>
   </g>
   <g>
    <path class="fil1" d="M102.66 37.5l14.09 0c2.53,0 4.64,0.88 6.42,2.57 1.77,1.69 2.61,3.7 2.61,6.03l0 7.48c0,2.41 -0.84,4.5 -2.61,6.11 -1.78,1.69 -3.89,2.49 -6.42,2.49l-14.09 0c-2.53,0 -4.64,-0.8 -6.41,-2.49 -1.69,-1.61 -2.62,-3.7 -2.62,-6.11l0 -7.48c0,-2.33 0.93,-4.34 2.62,-6.03 1.77,-1.69 3.88,-2.57 6.41,-2.57z"/>
   </g>
   <g>
    <path class="fil2" d="M102.39 52.9l0 -6.03 7.8 0 0 -3.86 6.83 6.91 -6.83 6.76 0 -3.78 -7.8 0z"/>
   </g>
  </g>
  <g id="_852893296">
   <g>
    <path class="fil0" d="M73.84 38.87l-17.59 0c-3.13,0 -5.84,1.04 -7.95,3.05 -2.29,2.17 -3.3,4.66 -3.3,7.64l0 9.25c0,2.97 1.01,5.46 3.3,7.55 2.11,2.09 4.82,3.14 7.95,3.14l17.59 0c3.13,0 5.75,-1.05 7.86,-3.14 2.29,-2.09 3.3,-4.58 3.3,-7.55l0 -9.25c0,-2.98 -1.01,-5.47 -3.3,-7.64 -2.11,-2.01 -4.73,-3.05 -7.86,-3.05z"/>
   </g>
   <g>
    <path class="fil1" d="M72.15 37.5l-14.21 0c-2.45,0 -4.65,0.88 -6.34,2.57 -1.78,1.61 -2.63,3.7 -2.63,6.03l0 7.48c0,2.41 0.85,4.5 2.63,6.11 1.69,1.69 3.89,2.49 6.34,2.49l14.21 0c2.45,0 4.65,-0.8 6.34,-2.49 1.86,-1.61 2.71,-3.7 2.71,-6.11l0 -7.48c0,-2.33 -0.85,-4.42 -2.71,-6.03 -1.69,-1.69 -3.89,-2.57 -6.34,-2.57z"/>
   </g>
   <g>
    <path class="fil2" d="M62.03 42.52l6.03 0 0 7.8 3.86 0 -6.92 6.84 -6.75 -6.84 3.78 0 0 -7.8z"/>
   </g>
  </g>
 </g>
</svg>
