<?xml version="1.0" encoding="UTF-8"?>
<!DOCTYPE svg PUBLIC "-//W3C//DTD SVG 1.1//EN" "http://www.w3.org/Graphics/SVG/1.1/DTD/svg11.dtd">
<!-- Creator: CorelDRAW 2020 (64-Bit) -->
<svg xmlns="http://www.w3.org/2000/svg" xml:space="preserve" width="128px" height="77px" version="1.1" style="shape-rendering:geometricPrecision; text-rendering:geometricPrecision; image-rendering:optimizeQuality; fill-rule:evenodd; clip-rule:evenodd"
viewBox="0 0 128 77"
 xmlns:xlink="http://www.w3.org/1999/xlink"
 xmlns:xodm="http://www.corel.com/coreldraw/odm/2003">
 <defs>
  <style type="text/css">
   <![CDATA[
    .fil15 {fill:#12274C}
    .fil12 {fill:#14294F}
    .fil11 {fill:#1F365B}
    .fil14 {fill:#354E6D}
    .fil5 {fill:#446656}
    .fil18 {fill:#4C637D}
    .fil13 {fill:#617A92}
    .fil10 {fill:#748B9E}
    .fil2 {fill:#7F9581}
    .fil3 {fill:#7F9A6D}
    .fil16 {fill:#8094A4}
    .fil17 {fill:#8CA0AF}
    .fil6 {fill:#8FAC71}
    .fil0 {fill:#999999}
    .fil4 {fill:#ADBCA1}
    .fil1 {fill:#B3C3A0}
    .fil9 {fill:#BBC5A5}
    .fil7 {fill:#C9D3B5}
    .fil8 {fill:#CDD7B8}
   ]]>
  </style>
 </defs>
 <g id="Layer_x0020_1">
  <metadata id="CorelCorpID_0Corel-Layer"/>
  <rect class="fil0" y="0.5" width="128" height="77"/>
  <g id="_1063160880">
   <path class="fil1" d="M13.5 60l-13.5 0 0 -2.5 13.5 0 0 2.5z"/>
   <path class="fil2" d="M13.5 77.5l-13.5 0 0 -2.5 13.5 0 0 2.5z"/>
   <path class="fil3" d="M13.5 75l0 -15 2.5 0 0 15 -2.5 0z"/>
   <path class="fil4" d="M13.5 60l-13.5 0 0 15 13.5 0 0 -15z"/>
   <path class="fil5" d="M16 75l-2.5 2.5 0 -2.5 2.5 0z"/>
   <path class="fil6" d="M16 60l-2.5 -2.5 0 2.5 2.5 0z"/>
  </g>
  <g id="_1068977104">
   <path class="fil1" d="M45.5 60l-27 0 0 -2.5 27 0 0 2.5z"/>
   <path class="fil2" d="M45.5 77.5l-27 0 0 -2.5 27 0 0 2.5z"/>
   <path class="fil3" d="M45.5 75l0 -15 2.5 0 0 15 -2.5 0z"/>
   <rect class="fil4" x="18.5" y="60" width="27" height="15"/>
   <path class="fil7" d="M16 75l0 -15 2.5 0 0 15 -2.5 0z"/>
   <path class="fil8" d="M16 60l2.5 -2.5 0 2.5 -2.5 0z"/>
   <path class="fil9" d="M16 75l2.5 2.5 0 -2.5 -2.5 0z"/>
   <path class="fil5" d="M48 75l-2.5 2.5 0 -2.5 2.5 0z"/>
   <path class="fil6" d="M48 60l-2.5 -2.5 0 2.5 2.5 0z"/>
  </g>
  <g id="_1068969376">
   <path class="fil1" d="M77.5 60l-27 0 0 -2.5 27 0 0 2.5z"/>
   <path class="fil2" d="M77.5 77.5l-27 0 0 -2.5 27 0 0 2.5z"/>
   <path class="fil3" d="M77.5 75l0 -15 2.5 0 0 15 -2.5 0z"/>
   <rect class="fil4" x="50.5" y="60" width="27" height="15"/>
   <path class="fil7" d="M48 75l0 -15 2.5 0 0 15 -2.5 0z"/>
   <path class="fil8" d="M48 60l2.5 -2.5 0 2.5 -2.5 0z"/>
   <path class="fil9" d="M48 75l2.5 2.5 0 -2.5 -2.5 0z"/>
   <path class="fil5" d="M80 75l-2.5 2.5 0 -2.5 2.5 0z"/>
   <path class="fil6" d="M80 60l-2.5 -2.5 0 2.5 2.5 0z"/>
  </g>
  <g id="_1068966592">
   <path class="fil1" d="M109.5 60l-27 0 0 -2.5 27 0 0 2.5z"/>
   <path class="fil2" d="M109.5 77.5l-27 0 0 -2.5 27 0 0 2.5z"/>
   <path class="fil3" d="M109.5 75l0 -15 2.5 0 0 15 -2.5 0z"/>
   <rect class="fil4" x="82.5" y="60" width="27" height="15"/>
   <path class="fil7" d="M80 75l0 -15 2.5 0 0 15 -2.5 0z"/>
   <path class="fil8" d="M80 60l2.5 -2.5 0 2.5 -2.5 0z"/>
   <path class="fil9" d="M80 75l2.5 2.5 0 -2.5 -2.5 0z"/>
   <path class="fil5" d="M112 75l-2.5 2.5 0 -2.5 2.5 0z"/>
   <path class="fil6" d="M112 60l-2.5 -2.5 0 2.5 2.5 0z"/>
  </g>
  <g id="_1068963472">
   <path class="fil1" d="M128 60l-13.5 0 0 -2.5 13.5 0 0 2.5z"/>
   <path class="fil2" d="M128 77.5l-13.5 0 0 -2.5 13.5 0 0 2.5z"/>
   <path class="fil4" d="M128 60l-13.5 0 0 15 13.5 0 0 -15z"/>
   <path class="fil7" d="M112 75l0 -15 2.5 0 0 15 -2.5 0z"/>
   <path class="fil8" d="M112 60l2.5 -2.5 0 2.5 -2.5 0z"/>
   <path class="fil9" d="M112 75l2.5 2.5 0 -2.5 -2.5 0z"/>
  </g>
  <g id="_1068958720">
   <path class="fil10" d="M0 31.5l29.5 0 0 -2.5 -29.5 0 0 2.5z"/>
   <path class="fil11" d="M0 57.5l29.5 0 0 -2.5 -29.5 0 0 2.5z"/>
   <path class="fil12" d="M32 55l0 -23.5 -2.5 0 0 23.5 2.5 0z"/>
   <path class="fil13" d="M0 31.5l29.5 0 0 23.5 -29.5 0 0 -23.5z"/>
   <path class="fil14" d="M32 31.5l-2.5 -2.5 0 2.5 2.5 0z"/>
   <path class="fil15" d="M32 55l-2.5 2.5 0 -2.5 2.5 0z"/>
  </g>
  <g id="_1068952000">
   <path class="fil10" d="M34.5 31.5l59 0 0 -2.5 -59 0 0 2.5z"/>
   <path class="fil11" d="M34.5 57.5l59 0 0 -2.5 -59 0 0 2.5z"/>
   <path class="fil16" d="M34.5 55l0 -23.5 -2.5 0 0 23.5 2.5 0z"/>
   <path class="fil12" d="M96 55l0 -23.5 -2.5 0 0 23.5 2.5 0z"/>
   <rect class="fil13" x="34.5" y="31.5" width="59.01" height="23.5"/>
   <path class="fil17" d="M32 31.5l2.5 -2.5 0 2.5 -2.5 0z"/>
   <path class="fil18" d="M32 55l2.5 2.5 0 -2.5 -2.5 0z"/>
   <path class="fil14" d="M96 31.5l-2.5 -2.5 0 2.5 2.5 0z"/>
   <path class="fil15" d="M96 55l-2.5 2.5 0 -2.5 2.5 0z"/>
  </g>
  <g id="_1068951952">
   <path class="fil10" d="M98.5 31.5l29.5 0 0 -2.5 -29.5 0 0 2.5z"/>
   <path class="fil11" d="M98.5 57.5l29.5 0 0 -2.5 -29.5 0 0 2.5z"/>
   <path class="fil16" d="M98.5 55l0 -23.5 -2.5 0 0 23.5 2.5 0z"/>
   <path class="fil13" d="M98.5 31.5l29.5 0 0 23.5 -29.5 0 0 -23.5z"/>
   <path class="fil17" d="M96 31.5l2.5 -2.5 0 2.5 -2.5 0z"/>
   <path class="fil18" d="M96 55l2.5 2.5 0 -2.5 -2.5 0z"/>
  </g>
  <g id="_1064684560">
   <path class="fil10" d="M2.5 3l59 0 0 -2.5 -59 0 0 2.5z"/>
   <path class="fil11" d="M2.5 29l59 0 0 -2.5 -59 0 0 2.5z"/>
   <path class="fil16" d="M2.5 26.5l0 -23.5 -2.5 0 0 23.5 2.5 0z"/>
   <path class="fil12" d="M64 26.5l0 -23.5 -2.5 0 0 23.5 2.5 0z"/>
   <rect class="fil13" x="2.5" y="3" width="59.01" height="23.5"/>
   <path class="fil17" d="M0 3l2.5 -2.5 0 2.5 -2.5 0z"/>
   <path class="fil18" d="M0 26.5l2.5 2.5 0 -2.5 -2.5 0z"/>
   <path class="fil14" d="M64 3l-2.5 -2.5 0 2.5 2.5 0z"/>
   <path class="fil15" d="M64 26.5l-2.5 2.5 0 -2.5 2.5 0z"/>
  </g>
  <g id="_1064684992">
   <path class="fil10" d="M66.5 3l59 0 0 -2.5 -59 0 0 2.5z"/>
   <path class="fil11" d="M66.5 29l59 0 0 -2.5 -59 0 0 2.5z"/>
   <path class="fil16" d="M66.5 26.5l0 -23.5 -2.5 0 0 23.5 2.5 0z"/>
   <path class="fil12" d="M128 26.5l0 -23.5 -2.5 0 0 23.5 2.5 0z"/>
   <rect class="fil13" x="66.5" y="3" width="59.01" height="23.5"/>
   <path class="fil17" d="M64 3l2.5 -2.5 0 2.5 -2.5 0z"/>
   <path class="fil18" d="M64 26.5l2.5 2.5 0 -2.5 -2.5 0z"/>
   <path class="fil14" d="M128 3l-2.5 -2.5 0 2.5 2.5 0z"/>
   <path class="fil15" d="M128 26.5l-2.5 2.5 0 -2.5 2.5 0z"/>
  </g>
 </g>
</svg>
