<?xml version="1.0" encoding="UTF-8"?>
<!DOCTYPE svg PUBLIC "-//W3C//DTD SVG 1.1//EN" "http://www.w3.org/Graphics/SVG/1.1/DTD/svg11.dtd">
<!-- Creator: CorelDRAW 2020 (64-Bit) -->
<svg xmlns="http://www.w3.org/2000/svg" xml:space="preserve" width="128px" height="77px" version="1.1" style="shape-rendering:geometricPrecision; text-rendering:geometricPrecision; image-rendering:optimizeQuality; fill-rule:evenodd; clip-rule:evenodd"
viewBox="0 0 128 77"
 xmlns:xlink="http://www.w3.org/1999/xlink"
 xmlns:xodm="http://www.corel.com/coreldraw/odm/2003">
 <defs>
  <style type="text/css">
   <![CDATA[
    .fil15 {fill:#12274C}
    .fil12 {fill:#14294F}
    .fil11 {fill:#1F365B}
    .fil14 {fill:#354E6D}
    .fil5 {fill:#446656}
    .fil18 {fill:#4C637D}
    .fil13 {fill:#617A92}
    .fil10 {fill:#748B9E}
    .fil2 {fill:#7F9581}
    .fil3 {fill:#7F9A6D}
    .fil16 {fill:#8094A4}
    .fil17 {fill:#8CA0AF}
    .fil6 {fill:#8FAC71}
    .fil0 {fill:#999999}
    .fil4 {fill:#ADBCA1}
    .fil1 {fill:#B3C3A0}
    .fil9 {fill:#BBC5A5}
    .fil7 {fill:#C9D3B5}
    .fil8 {fill:#CDD7B8}
   ]]>
  </style>
 </defs>
 <g id="Layer_x0020_1">
  <metadata id="CorelCorpID_0Corel-Layer"/>
  <rect class="fil0" y="0.5" width="128" height="77"/>
  <g id="_1173165472">
   <g>
    <path class="fil1" d="M13.5 3l-13.5 0 0 -2.5 13.5 0 0 2.5z"/>
    <path class="fil2" d="M13.5 20.5l-13.5 0 0 -2.5 13.5 0 0 2.5z"/>
    <path class="fil3" d="M13.5 18l0 -15 2.5 0 0 15 -2.5 0z"/>
    <path class="fil4" d="M13.5 3l-13.5 0 0 15 13.5 0 0 -15z"/>
    <path class="fil5" d="M16 18l-2.5 2.5 0 -2.5 2.5 0z"/>
    <path class="fil6" d="M16 3l-2.5 -2.5 0 2.5 2.5 0z"/>
   </g>
   <g>
    <path class="fil1" d="M45.5 3l-27 0 0 -2.5 27 0 0 2.5z"/>
    <path class="fil2" d="M45.5 20.5l-27 0 0 -2.5 27 0 0 2.5z"/>
    <path class="fil3" d="M45.5 18l0 -15 2.5 0 0 15 -2.5 0z"/>
    <rect class="fil4" x="18.5" y="3" width="27" height="15"/>
    <path class="fil7" d="M16 18l0 -15 2.5 0 0 15 -2.5 0z"/>
    <path class="fil8" d="M16 3l2.5 -2.5 0 2.5 -2.5 0z"/>
    <path class="fil9" d="M16 18l2.5 2.5 0 -2.5 -2.5 0z"/>
    <path class="fil5" d="M48 18l-2.5 2.5 0 -2.5 2.5 0z"/>
    <path class="fil6" d="M48 3l-2.5 -2.5 0 2.5 2.5 0z"/>
   </g>
   <g>
    <path class="fil1" d="M77.5 3l-27 0 0 -2.5 27 0 0 2.5z"/>
    <path class="fil2" d="M77.5 20.5l-27 0 0 -2.5 27 0 0 2.5z"/>
    <path class="fil3" d="M77.5 18l0 -15 2.5 0 0 15 -2.5 0z"/>
    <rect class="fil4" x="50.5" y="3" width="27" height="15"/>
    <path class="fil7" d="M48 18l0 -15 2.5 0 0 15 -2.5 0z"/>
    <path class="fil8" d="M48 3l2.5 -2.5 0 2.5 -2.5 0z"/>
    <path class="fil9" d="M48 18l2.5 2.5 0 -2.5 -2.5 0z"/>
    <path class="fil5" d="M80 18l-2.5 2.5 0 -2.5 2.5 0z"/>
    <path class="fil6" d="M80 3l-2.5 -2.5 0 2.5 2.5 0z"/>
   </g>
   <g>
    <path class="fil1" d="M109.5 3l-27 0 0 -2.5 27 0 0 2.5z"/>
    <path class="fil2" d="M109.5 20.5l-27 0 0 -2.5 27 0 0 2.5z"/>
    <path class="fil3" d="M109.5 18l0 -15 2.5 0 0 15 -2.5 0z"/>
    <rect class="fil4" x="82.5" y="3" width="27" height="15"/>
    <path class="fil7" d="M80 18l0 -15 2.5 0 0 15 -2.5 0z"/>
    <path class="fil8" d="M80 3l2.5 -2.5 0 2.5 -2.5 0z"/>
    <path class="fil9" d="M80 18l2.5 2.5 0 -2.5 -2.5 0z"/>
    <path class="fil5" d="M112 18l-2.5 2.5 0 -2.5 2.5 0z"/>
    <path class="fil6" d="M112 3l-2.5 -2.5 0 2.5 2.5 0z"/>
   </g>
   <g>
    <path class="fil1" d="M128 3l-13.5 0 0 -2.5 13.5 0 0 2.5z"/>
    <path class="fil2" d="M128 20.5l-13.5 0 0 -2.5 13.5 0 0 2.5z"/>
    <path class="fil4" d="M128 3l-13.5 0 0 15 13.5 0 0 -15z"/>
    <path class="fil7" d="M112 18l0 -15 2.5 0 0 15 -2.5 0z"/>
    <path class="fil8" d="M112 3l2.5 -2.5 0 2.5 -2.5 0z"/>
    <path class="fil9" d="M112 18l2.5 2.5 0 -2.5 -2.5 0z"/>
   </g>
  </g>
  <g id="_1173163312">
   <path class="fil10" d="M0 23l29.5 0 0 -2.5 -29.5 0 0 2.5z"/>
   <path class="fil11" d="M0 49l29.5 0 0 -2.5 -29.5 0 0 2.5z"/>
   <path class="fil12" d="M32 46.5l0 -23.5 -2.5 0 0 23.5 2.5 0z"/>
   <path class="fil13" d="M0 23l29.5 0 0 23.5 -29.5 0 0 -23.5z"/>
   <path class="fil14" d="M32 23l-2.5 -2.5 0 2.5 2.5 0z"/>
   <path class="fil15" d="M32 46.5l-2.5 2.5 0 -2.5 2.5 0z"/>
  </g>
  <g id="_1173160480">
   <path class="fil10" d="M34.5 23l59 0 0 -2.5 -59 0 0 2.5z"/>
   <path class="fil11" d="M34.5 49l59 0 0 -2.5 -59 0 0 2.5z"/>
   <path class="fil16" d="M34.5 46.5l0 -23.5 -2.5 0 0 23.5 2.5 0z"/>
   <path class="fil12" d="M96 46.5l0 -23.5 -2.5 0 0 23.5 2.5 0z"/>
   <rect class="fil13" x="34.5" y="23" width="59.01" height="23.5"/>
   <path class="fil17" d="M32 23l2.5 -2.5 0 2.5 -2.5 0z"/>
   <path class="fil18" d="M32 46.5l2.5 2.5 0 -2.5 -2.5 0z"/>
   <path class="fil14" d="M96 23l-2.5 -2.5 0 2.5 2.5 0z"/>
   <path class="fil15" d="M96 46.5l-2.5 2.5 0 -2.5 2.5 0z"/>
  </g>
  <g id="_1173157168">
   <path class="fil10" d="M98.5 23l29.5 0 0 -2.5 -29.5 0 0 2.5z"/>
   <path class="fil11" d="M98.5 49l29.5 0 0 -2.5 -29.5 0 0 2.5z"/>
   <path class="fil16" d="M98.5 46.5l0 -23.5 -2.5 0 0 23.5 2.5 0z"/>
   <path class="fil13" d="M98.5 23l29.5 0 0 23.5 -29.5 0 0 -23.5z"/>
   <path class="fil17" d="M96 23l2.5 -2.5 0 2.5 -2.5 0z"/>
   <path class="fil18" d="M96 46.5l2.5 2.5 0 -2.5 -2.5 0z"/>
  </g>
  <g id="_1173154048">
   <path class="fil10" d="M66.5 51.5l59 0 0 -2.5 -59 0 0 2.5z"/>
   <path class="fil11" d="M66.5 77.5l59 0 0 -2.5 -59 0 0 2.5z"/>
   <path class="fil16" d="M66.5 75l0 -23.5 -2.5 0 0 23.5 2.5 0z"/>
   <path class="fil12" d="M128 75l0 -23.5 -2.5 0 0 23.5 2.5 0z"/>
   <rect class="fil13" x="66.5" y="51.5" width="59.01" height="23.5"/>
   <path class="fil17" d="M64 51.5l2.5 -2.5 0 2.5 -2.5 0z"/>
   <path class="fil18" d="M64 75l2.5 2.5 0 -2.5 -2.5 0z"/>
   <path class="fil14" d="M128 51.5l-2.5 -2.5 0 2.5 2.5 0z"/>
   <path class="fil15" d="M128 75l-2.5 2.5 0 -2.5 2.5 0z"/>
  </g>
  <g id="_1173153952">
   <path class="fil10" d="M2.5 51.5l59 0 0 -2.5 -59 0 0 2.5z"/>
   <path class="fil11" d="M2.5 77.5l59 0 0 -2.5 -59 0 0 2.5z"/>
   <path class="fil16" d="M2.5 75l0 -23.5 -2.5 0 0 23.5 2.5 0z"/>
   <path class="fil12" d="M64 75l0 -23.5 -2.5 0 0 23.5 2.5 0z"/>
   <rect class="fil13" x="2.5" y="51.5" width="59.01" height="23.5"/>
   <path class="fil17" d="M0 51.5l2.5 -2.5 0 2.5 -2.5 0z"/>
   <path class="fil18" d="M0 75l2.5 2.5 0 -2.5 -2.5 0z"/>
   <path class="fil14" d="M64 51.5l-2.5 -2.5 0 2.5 2.5 0z"/>
   <path class="fil15" d="M64 75l-2.5 2.5 0 -2.5 2.5 0z"/>
  </g>
 </g>
</svg>
